<svg width="74" height="21" viewBox="0 0 74 21" fill="none" xmlns="http://www.w3.org/2000/svg">
<path d="M20.4977 2.40428C19.6689 2.0013 18.6369 0.950275 18.2359 0.106191C18.1717 -0.0353971 17.9685 -0.0353971 17.9043 0.106191C17.5087 0.944829 16.4713 1.99585 15.6425 2.40428C15.5035 2.46963 15.5035 2.67656 15.6425 2.74191C16.4713 3.14489 17.5033 4.19591 17.9043 5.04C17.9685 5.18159 18.1717 5.18159 18.2359 5.04C18.6315 4.20136 19.6689 3.15034 20.4977 2.74191C20.6367 2.67656 20.6367 2.46963 20.4977 2.40428Z" fill="white"/>
<path d="M10.0124 20.5606C8.97506 16.9882 3.65472 11.5806 0.13635 10.5296C-0.0454501 10.4751 -0.0454501 10.2192 0.13635 10.1647C3.65472 9.11372 8.97506 3.71158 10.0124 0.139203C10.0659 -0.0405049 10.3172 -0.0405049 10.3706 0.139203C11.408 3.71158 16.7283 9.11372 20.2467 10.1702C20.4285 10.2246 20.4285 10.4806 20.2467 10.535C16.7283 11.5861 11.408 16.9882 10.3706 20.566C10.3172 20.7457 10.0659 20.7457 10.0124 20.566V20.5606Z" fill="white"/>
<path d="M20.3365 10.2416C14.5374 7.79903 11.3726 2.75062 10.3985 0.262365C10.3624 0.170188 10.2307 0.167807 10.1903 0.258173C7.75304 5.71409 2.71501 9.10256 0.24396 10.2425C0.155519 10.2833 0.15856 10.413 0.248639 10.4501C5.32295 12.5348 8.90829 17.8359 10.1939 20.4719C10.2357 20.5575 10.3603 20.552 10.3968 20.464C12.8202 14.6252 17.8507 11.4367 20.3356 10.4521C20.4286 10.4153 20.4286 10.2804 20.3365 10.2416Z" fill="white"/>
<path d="M36.2819 14.1143H31.4571L30.6588 16.4327H28.1075L32.4637 4.2476H35.2926L39.6488 16.4327H37.0802L36.2819 14.1143ZM35.6224 12.1618L33.8695 7.07162L32.1166 12.1618H35.6224Z" fill="white"/>
<path d="M43.7068 8.18729C44.0192 7.72243 44.4473 7.34473 44.9911 7.05419C45.5465 6.76365 46.1771 6.61838 46.8829 6.61838C47.7043 6.61838 48.4448 6.82176 49.1043 7.22851C49.7754 7.63527 50.3019 8.21634 50.6837 8.97174C51.0771 9.71552 51.2738 10.5813 51.2738 11.5691C51.2738 12.557 51.0771 13.4344 50.6837 14.2014C50.3019 14.9568 49.7754 15.5437 49.1043 15.9621C48.4448 16.3805 47.7043 16.5896 46.8829 16.5896C46.1655 16.5896 45.5349 16.4502 44.9911 16.1713C44.4589 15.8807 44.0308 15.5088 43.7068 15.0556V16.4327H41.2771V3.53288H43.7068V8.18729ZM48.7919 11.5691C48.7919 10.9881 48.6705 10.4883 48.4275 10.07C48.1961 9.63998 47.8837 9.31458 47.4903 9.09377C47.1085 8.87296 46.6919 8.76255 46.2407 8.76255C45.801 8.76255 45.3845 8.87877 44.9911 9.1112C44.6093 9.33201 44.2969 9.65741 44.0539 10.0874C43.8225 10.5174 43.7068 11.0229 43.7068 11.604C43.7068 12.1851 43.8225 12.6906 44.0539 13.1206C44.2969 13.5506 44.6093 13.8818 44.9911 14.1143C45.3845 14.3351 45.801 14.4455 46.2407 14.4455C46.6919 14.4455 47.1085 14.3293 47.4903 14.0968C47.8837 13.8644 48.1961 13.5332 48.4275 13.1032C48.6705 12.6732 48.7919 12.1618 48.7919 11.5691Z" fill="white"/>
<path d="M55.4691 8.18729C55.7815 7.72243 56.2096 7.34473 56.7534 7.05419C57.3088 6.76365 57.9394 6.61838 58.6451 6.61838C59.4666 6.61838 60.2071 6.82176 60.8666 7.22851C61.5377 7.63527 62.0641 8.21634 62.446 8.97174C62.8394 9.71552 63.036 10.5813 63.036 11.5691C63.036 12.557 62.8394 13.4344 62.446 14.2014C62.0641 14.9568 61.5377 15.5437 60.8666 15.9621C60.2071 16.3805 59.4666 16.5896 58.6451 16.5896C57.9278 16.5896 57.2972 16.4502 56.7534 16.1713C56.2212 15.8807 55.7931 15.5088 55.4691 15.0556V16.4327H53.0394V3.53288H55.4691V8.18729ZM60.5542 11.5691C60.5542 10.9881 60.4327 10.4883 60.1898 10.07C59.9584 9.63998 59.646 9.31458 59.2526 9.09377C58.8708 8.87296 58.4542 8.76255 58.003 8.76255C57.5633 8.76255 57.1468 8.87877 56.7534 9.1112C56.3716 9.33201 56.0592 9.65741 55.8162 10.0874C55.5848 10.5174 55.4691 11.0229 55.4691 11.604C55.4691 12.1851 55.5848 12.6906 55.8162 13.1206C56.0592 13.5506 56.3716 13.8818 56.7534 14.1143C57.1468 14.3351 57.5633 14.4455 58.003 14.4455C58.4542 14.4455 58.8708 14.3293 59.2526 14.0968C59.646 13.8644 59.9584 13.5332 60.1898 13.1032C60.4327 12.6732 60.5542 12.1618 60.5542 11.5691Z" fill="white"/>
<path d="M74 6.77528L68.0471 21H65.4612L67.5438 16.1887L63.6909 6.77528H66.4157L68.8975 13.5216L71.4141 6.77528H74Z" fill="white"/>
</svg>
