<svg width="159" height="35" viewBox="0 0 159 35" fill="none" xmlns="http://www.w3.org/2000/svg">
<path d="M5.3177 27.4854C6.52874 28.6827 6.52874 30.6322 5.3177 31.8449C4.10666 33.0423 2.13484 33.0423 0.908279 31.8449C-0.30276 30.6476 -0.30276 28.6981 0.908279 27.4854C2.11932 26.2727 4.09114 26.2727 5.3177 27.4854Z" fill="#00CB84"/>
<path d="M11.6988 21.1612C12.9098 22.3585 12.9098 24.308 11.6988 25.5207C10.4878 26.7334 8.51595 26.7181 7.28938 25.5207C6.07834 24.3234 6.07834 22.3739 7.28938 21.1612C8.51595 19.9638 10.4878 19.9638 11.6988 21.1612Z" fill="#00CB84"/>
<path d="M18.0958 14.8367C19.3068 16.0341 19.3068 17.9836 18.0958 19.1963C16.8847 20.3936 14.9129 20.3936 13.6864 19.1963C12.4753 17.9989 12.4753 16.0494 13.6864 14.8367C14.9129 13.6394 16.8847 13.6394 18.0958 14.8367Z" fill="#00CB84"/>
<path d="M24.4926 8.52768C25.7037 9.72502 25.7037 11.6745 24.4926 12.8872C23.2816 14.0999 21.3098 14.0846 20.0832 12.8872C18.8722 11.6899 18.8722 9.74037 20.0832 8.52768C21.2942 7.31499 23.2661 7.31499 24.4926 8.52768Z" fill="#00CB84"/>
<path d="M0.908279 2.20312C2.11932 1.00578 4.09114 1.00578 5.3177 2.20312C6.52874 3.40046 6.52874 5.34997 5.3177 6.56266C4.10666 7.76 2.13484 7.76 0.908279 6.56266C-0.30276 5.34997 -0.30276 3.40046 0.908279 2.20312Z" fill="#00CB84"/>
<path d="M26.4797 27.4853C27.6908 26.2879 29.6626 26.2879 30.8892 27.4853C32.1002 28.6826 32.1002 30.6321 30.8892 31.8448C29.6781 33.0422 27.7063 33.0422 26.4797 31.8448C25.2532 30.6321 25.2532 28.6826 26.4797 27.4853Z" fill="#00CB84"/>
<path d="M20.0832 21.1612C21.2942 19.9638 23.2661 19.9638 24.4926 21.1612C25.7037 22.3585 25.7037 24.308 24.4926 25.5207C23.2816 26.7334 21.3098 26.7181 20.0832 25.5207C18.8722 24.308 18.8722 22.3585 20.0832 21.1612Z" fill="#00CB84"/>
<path d="M7.30518 8.52752C8.51622 7.33018 10.488 7.33018 11.7146 8.52752C12.9256 9.72486 12.9256 11.6744 11.7146 12.8871C10.5036 14.0998 8.53174 14.0844 7.30518 12.8871C6.07861 11.6744 6.07861 9.72486 7.30518 8.52752Z" fill="#00CB84"/>
<path d="M30.8737 2.20321C32.0848 3.40055 32.0848 5.35006 30.8737 6.56275C29.6627 7.76009 27.6909 7.76009 26.4643 6.56275C25.2533 5.36541 25.2533 3.4159 26.4643 2.20321C27.6753 0.990519 29.6627 1.00587 30.8737 2.20321Z" fill="#00CB84"/>
<path d="M55.7931 27.7926V26.1041H50.0018V27.7926H51.865V32.7355H53.9144V27.7926H55.7931Z" fill="white"/>
<path d="M59.2866 29.6958C59.2866 28.7748 59.3177 27.8231 56.9887 27.8077C55.8398 27.8077 54.5511 28.0226 54.4735 29.3735L56.1969 29.3888C56.2124 29.1893 56.3211 28.8976 56.8956 28.8976C57.1906 28.8976 57.5011 29.0204 57.5011 29.3428C57.5011 29.6498 57.2527 29.7265 56.9887 29.7726C56.0416 29.9415 54.2406 29.8801 54.2406 31.3998C54.2406 32.4129 55.0169 32.858 55.9485 32.858C56.554 32.858 57.1129 32.7352 57.5166 32.2901H57.5321C57.5166 32.4129 57.5477 32.6124 57.5942 32.7506L59.4884 32.7659C59.2866 32.4589 59.2711 32.0445 59.2711 31.6914L59.2866 29.6958ZM57.5011 31.016C57.47 31.5226 57.144 31.7682 56.7248 31.7682C56.3832 31.7682 56.1503 31.5379 56.1503 31.323C56.1503 31.0006 56.3677 30.8932 56.7869 30.8011C57.0353 30.7397 57.2992 30.6783 57.5166 30.5708L57.5011 31.016Z" fill="white"/>
<path d="M62.7334 27.8385C62.1745 27.8385 61.6776 28.0687 61.3981 28.4832H61.3826L61.3981 26.1039H59.5505V32.7506H61.305V32.2287H61.3205C61.5534 32.5357 61.8329 32.8735 62.7334 32.8888C64.1152 32.8888 64.7828 31.5533 64.7828 30.356C64.7984 29.22 64.3636 27.8385 62.7334 27.8385ZM62.1123 31.538C61.4447 31.538 61.305 30.9086 61.305 30.3406C61.305 29.7727 61.4602 29.1586 62.1279 29.1586C62.7955 29.1586 62.9352 29.788 62.9352 30.3406C62.9352 30.9239 62.78 31.538 62.1123 31.538Z" fill="white"/>
<path d="M72.0024 26.1039C70.8535 26.1039 70.0927 26.5644 69.689 27.2552C69.2853 26.5798 68.5401 26.1193 67.4067 26.1039C65.5746 26.0886 64.7517 27.2705 64.7362 28.606C64.7207 29.9415 65.5435 31.1389 67.3756 31.1542C68.5246 31.1542 69.2853 30.6784 69.689 30.0029C70.0927 30.6784 70.838 31.1542 71.9714 31.1542C73.8034 31.1696 74.6263 29.9722 74.6419 28.6367C74.6419 27.3012 73.819 26.1193 72.0024 26.1039ZM67.3756 29.8187C66.6769 29.8187 66.5838 29.128 66.5838 28.6214C66.5838 28.1148 66.677 27.4394 67.3912 27.4394C68.0898 27.4394 68.183 28.1148 68.183 28.6214C68.1675 29.1433 68.0743 29.8187 67.3756 29.8187ZM71.9714 29.8187C71.2727 29.8187 71.1795 29.128 71.1795 28.6214C71.1795 28.1148 71.2727 27.4394 71.9869 27.4394C72.6856 27.4394 72.7787 28.1148 72.7787 28.6214C72.7787 29.1433 72.67 29.8187 71.9714 29.8187Z" fill="white"/>
<path d="M76.6448 26.1039H74.8282V32.7353H76.6448V26.1039Z" fill="white"/>
<path d="M81.7994 31.6455V29.6807C81.7994 28.7596 81.8305 27.8079 79.5015 27.7925C78.3526 27.7925 77.0639 28.0075 76.9863 29.3583L78.7097 29.3736C78.7252 29.1741 78.8339 28.8824 79.4084 28.8824C79.7034 28.8824 80.0139 29.0052 80.0139 29.3276C80.0139 29.6346 79.7655 29.7114 79.5015 29.7574C78.5545 29.9263 76.7534 29.8649 76.7534 31.3846C76.7534 32.3977 77.5142 32.8429 78.4613 32.8429C79.0668 32.8429 79.6258 32.7201 80.0294 32.2749H80.045C80.0294 32.3977 80.0605 32.6279 80.1071 32.7507H81.9702C81.7839 32.4284 81.7994 32.0139 81.7994 31.6455ZM80.0139 31.0008C79.9829 31.5074 79.6568 31.753 79.2376 31.753C78.896 31.753 78.6631 31.5227 78.6631 31.3078C78.6631 30.9854 78.8805 30.878 79.2997 30.7859C79.5481 30.7245 79.8121 30.6631 80.0294 30.5556L80.0139 31.0008Z" fill="white"/>
<path d="M65.4347 31.1542L65.4192 32.7507C66.8631 33.4261 68.0121 33.7485 69.5802 33.7485C71.0241 33.7638 72.4836 33.3954 73.8344 32.7507L73.8499 31.1542C72.3438 31.7222 71.1639 32.0139 69.5957 31.9985C68.1052 31.9832 66.7389 31.7376 65.4347 31.1542Z" fill="white"/>
<path d="M55.1567 7.74487L53.604 9.34132C53.4798 9.47948 53.2625 9.47948 53.1227 9.34132C52.2067 8.49705 51.1199 8.09793 49.8778 8.09793C48.6823 8.09793 47.6731 8.49704 46.8502 9.31062C46.0583 10.1242 45.6547 11.1373 45.6547 12.3654C45.6547 13.5781 46.0583 14.6065 46.8502 15.4201C47.6731 16.2337 48.6823 16.6328 49.8778 16.6328C51.1354 16.6328 52.2222 16.2183 53.1227 15.3894C53.2625 15.2666 53.4798 15.2666 53.604 15.3894L55.1567 16.9859C55.2809 17.1087 55.2809 17.3236 55.1567 17.4464C53.7282 18.8586 51.9738 19.5648 49.8778 19.5648C47.7817 19.5648 45.9962 18.8893 44.5523 17.5078C43.1084 16.1262 42.3942 14.407 42.3942 12.35C42.3942 10.2931 43.1084 8.6045 44.5523 7.22295C45.9962 5.84141 47.7662 5.15063 49.8778 5.15063C51.9738 5.15063 53.7282 5.85676 55.1567 7.26901C55.2809 7.40716 55.2809 7.60672 55.1567 7.74487Z" fill="white"/>
<path d="M56.1967 12.396C56.1967 10.3698 56.9264 8.65052 58.3858 7.26897C59.8298 5.88743 61.5998 5.19666 63.7113 5.19666C65.8073 5.19666 67.5928 5.90278 69.0368 7.26897C70.4807 8.65052 71.226 10.3698 71.226 12.396C71.226 14.4223 70.4962 16.1416 69.0368 17.5231C67.5928 18.9047 65.8229 19.5954 63.7113 19.5954C61.6153 19.5954 59.8298 18.8893 58.3858 17.5231C56.9264 16.1416 56.1967 14.407 56.1967 12.396ZM66.7234 15.4354C67.5463 14.6065 67.9499 13.6087 67.9499 12.3807C67.9499 11.1526 67.5463 10.1702 66.7234 9.35664C65.9005 8.52771 64.8913 8.11325 63.6958 8.11325C62.4692 8.11325 61.46 8.51236 60.6371 9.35664C59.8453 10.1702 59.4416 11.168 59.4416 12.3807C59.4416 13.5934 59.8453 14.5912 60.6371 15.4354C61.46 16.249 62.4692 16.6481 63.6958 16.6481C64.9068 16.6481 65.916 16.249 66.7234 15.4354Z" fill="white"/>
<path d="M72.67 18.8585V5.93339C72.67 5.74918 72.8253 5.59568 73.0116 5.59568H75.5734C75.7597 5.59568 75.915 5.74918 75.915 5.93339V6.486C75.915 6.79301 76.2876 6.93117 76.505 6.71626C77.3124 5.87198 78.5855 5.33472 80.0915 5.33472C83.3675 5.33472 85.3083 7.40703 85.3083 10.7841V18.8585C85.3083 19.0427 85.1531 19.1962 84.9667 19.1962H82.3739C82.1876 19.1962 82.0323 19.0427 82.0323 18.8585V11.2293C82.0323 9.3719 80.9455 8.20526 79.1134 8.20526C77.2658 8.20526 75.915 9.4947 75.915 11.3675V18.8585C75.915 19.0427 75.7597 19.1962 75.5734 19.1962H73.0116C72.8253 19.1809 72.67 19.0427 72.67 18.8585Z" fill="white"/>
<path d="M87.1094 18.843V5.93323C87.1094 5.74903 87.2646 5.59553 87.451 5.59553H90.0128C90.1991 5.59553 90.3543 5.74903 90.3543 5.93323V6.45515C90.3543 6.76216 90.7425 6.91566 90.9443 6.68541C91.7517 5.84113 93.0093 5.31921 94.5309 5.31921C97.8069 5.31921 99.7476 7.39153 99.7476 10.7686V18.843C99.7476 19.0272 99.5924 19.1807 99.4061 19.1807H96.8132C96.6269 19.1807 96.4716 19.0272 96.4716 18.843V11.2292C96.4716 9.37174 95.3848 8.20511 93.5527 8.20511C91.7051 8.20511 90.3543 9.49455 90.3543 11.3673V18.843C90.3543 19.0272 90.1991 19.1807 90.0128 19.1807H87.451C87.2646 19.1807 87.1094 19.0272 87.1094 18.843Z" fill="white"/>
<path d="M101.269 12.3959C101.269 10.2314 101.952 8.51218 103.288 7.19204C104.654 5.8719 106.377 5.22717 108.473 5.22717C110.461 5.22717 112.106 5.8719 113.364 7.19204C114.653 8.51218 115.274 10.1393 115.274 12.0735C115.274 12.3498 115.258 12.6261 115.243 12.8871C115.227 13.0713 115.072 13.2094 114.886 13.2094H104.902C104.685 13.2094 104.514 13.409 104.545 13.6086C104.825 15.5427 106.377 16.7707 108.66 16.7707C109.964 16.7707 111.113 16.3256 112.122 15.4353C112.262 15.3124 112.479 15.3124 112.603 15.4353L114.063 16.8475C114.202 16.9857 114.202 17.2159 114.063 17.3541C112.557 18.797 110.725 19.5338 108.535 19.5338C106.377 19.5338 104.607 18.8891 103.272 17.615C101.937 16.3409 101.254 14.6524 101.254 12.5187V12.3959H101.269ZM111.547 10.9376C111.765 10.9376 111.936 10.7534 111.905 10.5384C111.811 9.89372 111.47 9.32576 110.895 8.86524C110.212 8.26657 109.42 7.97492 108.473 7.97492C107.464 7.97492 106.564 8.26657 105.834 8.83454C105.228 9.29505 104.84 9.86303 104.685 10.5077C104.623 10.7227 104.809 10.9376 105.027 10.9376H111.547Z" fill="white"/>
<path d="M130.163 18.8432V5.91803C130.163 5.73382 130.319 5.58032 130.505 5.58032H133.098C133.284 5.58032 133.439 5.73382 133.439 5.91803V18.8432C133.439 19.0274 133.284 19.1809 133.098 19.1809H130.505C130.303 19.1809 130.163 19.0427 130.163 18.8432Z" fill="white"/>
<path d="M130.117 3.70755V1.15936C130.117 0.975157 130.272 0.821655 130.458 0.821655H133.051C133.237 0.821655 133.393 0.975157 133.393 1.15936V3.70755C133.393 3.89175 133.237 4.04526 133.051 4.04526H130.458C130.272 4.04526 130.117 3.89175 130.117 3.70755Z" fill="white"/>
<path d="M128.036 5.59558H124.993C124.884 5.59558 124.791 5.64163 124.714 5.73373L122.028 9.44855C121.888 9.63276 121.624 9.63276 121.484 9.44855L118.798 5.73373C118.736 5.64163 118.627 5.59558 118.519 5.59558H115.476C115.196 5.59558 115.041 5.90259 115.196 6.13285L119.73 12.1809C119.823 12.3037 119.823 12.4573 119.73 12.5801L115.196 18.6588C115.025 18.8738 115.196 19.1961 115.476 19.1961H118.472C118.581 19.1961 118.674 19.1501 118.752 19.058L121.484 15.2817C121.624 15.0975 121.888 15.0975 122.028 15.2817L124.76 19.058C124.822 19.1501 124.931 19.1961 125.04 19.1961H128.036C128.316 19.1961 128.471 18.8891 128.316 18.6588L123.782 12.5801C123.689 12.4573 123.689 12.3037 123.782 12.1809L128.316 6.13285C128.471 5.90259 128.316 5.59558 128.036 5.59558Z" fill="white"/>
<path d="M157.567 17.953C157.551 17.6766 157.427 17.431 157.225 17.2315C156.977 16.9859 156.682 16.8784 156.325 16.8938C156.076 16.9091 155.844 17.0012 155.657 17.1701C155.393 17.4003 155.254 17.692 155.254 18.0451C155.254 18.3367 155.347 18.5823 155.533 18.7819C155.781 19.0735 156.17 19.227 156.558 19.181C156.76 19.1503 156.961 19.0735 157.117 18.9507C157.427 18.7205 157.598 18.3367 157.567 17.953ZM157.132 18.7665C156.93 18.9661 156.697 19.0582 156.418 19.0582C156.139 19.0582 155.89 18.9661 155.704 18.7665C155.502 18.567 155.409 18.3367 155.409 18.0451C155.409 17.7687 155.502 17.5231 155.704 17.3236C155.906 17.124 156.139 17.0319 156.418 17.0319C156.697 17.0319 156.946 17.124 157.132 17.3236C157.334 17.5231 157.427 17.7534 157.427 18.0451C157.427 18.3214 157.334 18.567 157.132 18.7665Z" fill="white"/>
<path d="M156.697 18.229C156.682 18.2137 156.697 18.183 156.713 18.1676C156.853 18.0909 156.915 17.9834 156.915 17.7992C156.915 17.6764 156.868 17.5843 156.775 17.4922C156.682 17.4154 156.558 17.3694 156.402 17.3694H156.03C155.999 17.3694 155.983 17.3847 155.983 17.4154V18.6588C155.983 18.6895 155.999 18.7049 156.03 18.7049H156.169C156.201 18.7049 156.216 18.6895 156.216 18.6588V18.2751C156.216 18.2444 156.232 18.229 156.263 18.229H156.418H156.449L156.697 18.6895C156.697 18.7049 156.713 18.7049 156.728 18.7049H156.884C156.915 18.7049 156.93 18.6742 156.915 18.6435L156.697 18.229ZM156.433 18.0141H156.278C156.247 18.0141 156.232 17.9987 156.232 17.968V17.6303C156.232 17.5996 156.247 17.5843 156.278 17.5843H156.433C156.511 17.5843 156.589 17.5996 156.635 17.6457C156.682 17.6917 156.713 17.7378 156.713 17.7992C156.713 17.8606 156.682 17.922 156.635 17.9527C156.589 17.9988 156.511 18.0141 156.433 18.0141Z" fill="white"/>
<path d="M158.654 5.58032H155.844C155.704 5.58032 155.58 5.67242 155.518 5.79523L152.568 13.931C152.459 14.2227 152.04 14.2227 151.931 13.931L148.174 5.79523C148.127 5.67242 148.003 5.58032 147.863 5.58032H145.1C144.851 5.58032 144.696 5.82593 144.789 6.04084L150.673 18.6129C150.705 18.6896 150.705 18.7817 150.673 18.8585L148.236 24.4768C148.143 24.6917 148.313 24.9373 148.546 24.9373H151.279C151.419 24.9373 151.543 24.8452 151.605 24.7224L158.98 6.05619C159.058 5.82593 158.902 5.58032 158.654 5.58032Z" fill="white"/>
<path d="M143.5 8.20532V5.9488C143.5 5.76459 143.345 5.61108 143.159 5.61108H141.187C141.001 5.61108 140.845 5.45758 140.845 5.27338V2.67914C140.845 2.49494 140.69 2.34143 140.504 2.34143H137.895C137.709 2.34143 137.554 2.49494 137.554 2.67914V5.27338C137.554 5.45758 137.398 5.61108 137.212 5.61108H135.256C135.07 5.61108 134.914 5.76459 134.914 5.9488V8.20532C134.914 8.38953 135.07 8.54303 135.256 8.54303H137.212C137.398 8.54303 137.554 8.69654 137.554 8.88074V18.8739C137.554 19.0581 137.709 19.2116 137.895 19.2116H140.504C140.69 19.2116 140.845 19.0581 140.845 18.8739V8.88074C140.845 8.69654 141.001 8.54303 141.187 8.54303H143.143C143.345 8.54303 143.5 8.38953 143.5 8.20532Z" fill="white"/>
<path d="M46.2601 32.6739V32.0753C45.934 32.4744 45.4217 32.766 44.6764 32.766C43.7604 32.766 42.9375 32.2441 42.9375 31.277C42.9375 30.2025 43.7759 29.6959 44.9093 29.6959C45.4993 29.6959 45.8719 29.7727 46.2601 29.8955V29.8034C46.2601 29.1433 45.8409 28.7749 45.0646 28.7749C44.5212 28.7749 44.1175 28.8977 43.6672 29.0819L43.3567 28.1916C43.8846 27.9613 44.4125 27.7925 45.2043 27.7925C46.6482 27.7925 47.3469 28.5447 47.3469 29.8187V32.6739H46.2601ZM46.2756 30.663C45.9962 30.5556 45.5925 30.4788 45.1577 30.4788C44.4591 30.4788 44.0399 30.7551 44.0399 31.231V31.2463C44.0399 31.7069 44.4591 31.9525 44.987 31.9525C45.7322 31.9525 46.2756 31.538 46.2756 30.9393V30.663Z" fill="white"/>
<path d="M85.4015 30.2946V30.2792C85.4015 28.913 86.4728 27.7617 87.9322 27.7617C88.8483 27.7617 89.4228 28.0994 89.873 28.5906L89.1743 29.3275C88.8328 28.9744 88.4757 28.7288 87.9167 28.7288C87.1094 28.7288 86.5194 29.4196 86.5194 30.2639V30.2792C86.5194 31.1388 87.1249 31.8296 87.9788 31.8296C88.5067 31.8296 88.8949 31.584 89.2364 31.2309L89.9041 31.891C89.4227 32.4129 88.8638 32.7967 87.9167 32.7967C86.4728 32.7967 85.4015 31.6761 85.4015 30.2946Z" fill="white"/>
<path d="M90.1681 30.2946V30.2793C90.1681 28.8977 91.2704 27.7618 92.7765 27.7618C94.2825 27.7618 95.3693 28.8824 95.3693 30.2639V30.2793C95.3693 31.6455 94.267 32.7814 92.7609 32.7814C91.2704 32.7967 90.1681 31.6762 90.1681 30.2946ZM94.2359 30.2946V30.2793C94.2359 29.435 93.6149 28.7289 92.7454 28.7289C91.8449 28.7289 91.286 29.4196 91.286 30.2639V30.2793C91.286 31.1235 91.907 31.8297 92.7765 31.8297C93.677 31.8297 94.2359 31.1235 94.2359 30.2946Z" fill="white"/>
<path d="M96.13 27.8694H97.2479V28.6063C97.5584 28.1765 97.9932 27.7773 98.7384 27.7773C99.4371 27.7773 99.9339 28.1151 100.182 28.6216C100.586 28.1151 101.098 27.7773 101.828 27.7773C102.884 27.7773 103.536 28.4374 103.536 29.6194V32.6895H102.418V29.9571C102.418 29.1896 102.061 28.7751 101.424 28.7751C100.819 28.7751 100.384 29.1896 100.384 29.9725V32.6895H99.2663V29.9418C99.2663 29.1896 98.8937 28.7751 98.2726 28.7751C97.6516 28.7751 97.2324 29.2356 97.2324 29.9725V32.6741H96.1145V27.8694H96.13Z" fill="white"/>
<path d="M104.514 27.8692H105.632V28.6675C105.989 28.1609 106.501 27.7618 107.278 27.7618C108.427 27.7618 109.545 28.6675 109.545 30.2639V30.2793C109.545 31.8757 108.442 32.7814 107.278 32.7814C106.47 32.7814 105.974 32.3823 105.632 31.9371V34.1476H104.514V27.8692ZM108.427 30.2793V30.2639C108.427 29.3275 107.79 28.7289 107.029 28.7289C106.269 28.7289 105.601 29.3429 105.601 30.2639V30.2793C105.601 31.2156 106.269 31.8143 107.029 31.8143C107.79 31.8297 108.427 31.231 108.427 30.2793Z" fill="white"/>
<path d="M113.318 32.6741V32.0754C112.992 32.4745 112.479 32.7662 111.734 32.7662C110.818 32.7662 109.995 32.2442 109.995 31.2772C109.995 30.2026 110.833 29.6961 111.967 29.6961C112.557 29.6961 112.929 29.7728 113.318 29.8956V29.8035C113.318 29.1435 112.898 28.775 112.122 28.775C111.579 28.775 111.175 28.8978 110.725 29.082L110.414 28.1917C110.942 27.9615 111.47 27.7926 112.262 27.7926C113.706 27.7926 114.404 28.5448 114.404 29.8189V32.6741H113.318ZM113.333 30.6631C113.054 30.5557 112.65 30.4789 112.215 30.4789C111.517 30.4789 111.097 30.7553 111.097 31.2311V31.2465C111.097 31.707 111.517 31.9526 112.044 31.9526C112.79 31.9526 113.333 31.5381 113.333 30.9395V30.6631Z" fill="white"/>
<path d="M115.383 27.8694H116.5V28.6216C116.811 28.1611 117.261 27.7773 118.022 27.7773C119.124 27.7773 119.761 28.5142 119.761 29.6348V32.7048H118.643V29.9725C118.643 29.2203 118.27 28.7905 117.603 28.7905C116.951 28.7905 116.5 29.2356 116.5 29.9878V32.7048H115.383V27.8694Z" fill="white"/>
<path d="M120.428 33.8714L120.801 33.0579C121.003 33.1653 121.22 33.2421 121.453 33.2421C121.764 33.2421 121.966 33.1039 122.152 32.6894L120.118 27.8694H121.313L122.695 31.446L123.953 27.8694H125.117L123.177 32.8276C122.788 33.81 122.354 34.1784 121.577 34.1784C121.112 34.1631 120.77 34.0556 120.428 33.8714Z" fill="white"/>
</svg>
