<svg width="142" height="24" viewBox="0 0 142 24" fill="none" xmlns="http://www.w3.org/2000/svg">
<path d="M90.7075 12.4149H81.8514C81.9264 13.3163 82.241 14.0221 82.7968 14.5323C83.3527 15.0426 84.0357 15.2985 84.8474 15.2985C85.9396 15.2985 86.7383 14.8616 87.242 13.9863C87.3137 13.8624 87.4457 13.789 87.5892 13.789H90.3195C90.533 13.789 90.6846 14.0042 90.608 14.2047C90.2217 15.2202 89.5778 16.0695 88.6764 16.7525C87.6544 17.5267 86.4009 17.9131 84.9143 17.9131C83.7129 17.9131 82.6355 17.6474 81.6819 17.1127C80.7283 16.5797 79.985 15.825 79.452 14.8486C78.9189 13.8722 78.6516 12.7458 78.6516 11.4695C78.6516 10.1932 78.9141 9.04397 79.4406 8.06757C79.9654 7.09117 80.7022 6.34135 81.6476 5.81484C82.5931 5.28997 83.6819 5.0259 84.9143 5.0259C86.1466 5.0259 87.1637 5.28181 88.101 5.79202C89.0399 6.30223 89.7686 7.0276 90.2869 7.96651C90.8053 8.90542 91.0644 9.98288 91.0644 11.1989C91.0644 11.5396 91.0465 11.8558 91.0123 12.146C90.9944 12.3008 90.8623 12.4165 90.7075 12.4165V12.4149ZM87.5093 10.2975C87.6691 10.2975 87.7978 10.1589 87.7799 10.0008C87.7065 9.3276 87.4197 8.77664 86.9209 8.34957C86.3503 7.86218 85.6511 7.61768 84.8262 7.61768C84.0455 7.61768 83.3885 7.85403 82.8555 8.32675C82.3942 8.73589 82.0878 9.28359 81.9345 9.96984C81.897 10.1377 82.0275 10.2991 82.2002 10.2991H87.5109L87.5093 10.2975Z" fill="white"/>
<path d="M32.8593 2.95409C34.1128 3.59959 35.081 4.52057 35.7657 5.71376C36.4487 6.90696 36.791 8.2925 36.791 9.87039C36.791 11.4483 36.4487 12.8257 35.7657 14.0042C35.0827 15.1827 34.1128 16.0956 32.8593 16.7411C31.6058 17.3866 30.1518 17.7093 28.5005 17.7093H24.3243C23.5957 17.7093 23.004 17.1176 23.004 16.389V3.30618C23.004 2.57755 23.5957 1.98584 24.3243 1.98584H28.5005C30.1518 1.98584 31.6058 2.30859 32.8593 2.95409ZM32.2187 13.6766C33.1201 12.7751 33.57 11.507 33.57 9.87039C33.57 8.23382 33.1201 6.9526 32.2187 6.02999C31.3173 5.10576 30.0409 4.64445 28.3897 4.64445H26.8917C26.4874 4.64445 26.1581 4.97209 26.1581 5.37797V14.2976C26.1581 14.7019 26.4858 15.0311 26.8917 15.0311H28.3897C30.0409 15.0311 31.3189 14.5812 32.2187 13.6798V13.6766Z" fill="white"/>
<path d="M49.8243 12.4149H40.9682C41.0432 13.3163 41.3578 14.0221 41.9136 14.5323C42.4695 15.0426 43.1525 15.2985 43.9642 15.2985C45.0564 15.2985 45.8551 14.8616 46.3588 13.9863C46.4305 13.8624 46.5625 13.789 46.706 13.789H49.4363C49.6498 13.789 49.8014 14.0042 49.7248 14.2047C49.3385 15.2202 48.6946 16.0695 47.7932 16.7525C46.7712 17.5267 45.5177 17.9131 44.0311 17.9131C42.8297 17.9131 41.7522 17.6474 40.7987 17.1127C39.8451 16.5797 39.1018 15.825 38.5688 14.8486C38.0357 13.8722 37.7684 12.7458 37.7684 11.4695C37.7684 10.1932 38.0308 9.04397 38.5573 8.06757C39.0822 7.09117 39.819 6.34135 40.7644 5.81484C41.7099 5.28997 42.7987 5.0259 44.0311 5.0259C45.2634 5.0259 46.2805 5.28181 47.2178 5.79202C48.1567 6.30223 48.8853 7.0276 49.4037 7.96651C49.9221 8.90542 50.1812 9.98288 50.1812 11.1989C50.1812 11.5396 50.1633 11.8558 50.1291 12.146C50.1111 12.3008 49.9791 12.4165 49.8243 12.4165V12.4149ZM46.6261 10.2975C46.7858 10.2975 46.9146 10.1589 46.8967 10.0008C46.8233 9.3276 46.5364 8.77664 46.0376 8.34957C45.4671 7.86218 44.7678 7.61768 43.943 7.61768C43.1622 7.61768 42.5053 7.85403 41.9723 8.32675C41.511 8.73589 41.2045 9.28359 41.0513 9.96984C41.0138 10.1377 41.1442 10.2991 41.317 10.2991H46.6277L46.6261 10.2975Z" fill="white"/>
<path d="M63.1468 12.4149H54.2908C54.3658 13.3163 54.6804 14.0221 55.2362 14.5323C55.792 15.0426 56.475 15.2985 57.2868 15.2985C58.3789 15.2985 59.1777 14.8616 59.6813 13.9863C59.7531 13.8624 59.8851 13.789 60.0285 13.789H62.7589C62.9724 13.789 63.124 14.0042 63.0474 14.2047C62.6611 15.2202 62.0172 16.0695 61.1158 16.7525C60.0938 17.5267 58.8402 17.9131 57.3536 17.9131C56.1523 17.9131 55.0748 17.6474 54.1212 17.1127C53.1677 16.5797 52.4244 15.825 51.8913 14.8486C51.3583 13.8722 51.091 12.7458 51.091 11.4695C51.091 10.1932 51.3534 9.04397 51.8799 8.06757C52.4048 7.09117 53.1416 6.34135 54.087 5.81484C55.0324 5.28997 56.1213 5.0259 57.3536 5.0259C58.586 5.0259 59.6031 5.28181 60.5404 5.79202C61.4793 6.30223 62.2079 7.0276 62.7263 7.96651C63.2446 8.90542 63.5038 9.98288 63.5038 11.1989C63.5038 11.5396 63.4859 11.8558 63.4516 12.146C63.4337 12.3008 63.3017 12.4165 63.1468 12.4165V12.4149ZM59.9487 10.2975C60.1084 10.2975 60.2372 10.1589 60.2193 10.0008C60.1459 9.3276 59.859 8.77664 59.3602 8.34957C58.7897 7.86218 58.0904 7.61768 57.2656 7.61768C56.4848 7.61768 55.8279 7.85403 55.2949 8.32675C54.8336 8.73589 54.5271 9.28359 54.3739 9.96984C54.3364 10.1377 54.4668 10.2991 54.6396 10.2991H59.9503L59.9487 10.2975Z" fill="white"/>
<path d="M69.5626 5.60132C70.2749 5.21826 71.09 5.02754 72.0061 5.02754C73.0721 5.02754 74.0371 5.28998 74.901 5.81649C75.765 6.34299 76.4479 7.08955 76.9516 8.0578C77.4553 9.02605 77.7063 10.1492 77.7063 11.4255C77.7063 12.7018 77.4553 13.8331 76.9516 14.816C76.4479 15.8005 75.765 16.5618 74.901 17.103C74.0371 17.6441 73.0721 17.9147 72.0061 17.9147C71.09 17.9147 70.2831 17.7273 69.5838 17.3507C68.8861 16.9758 68.3189 16.5031 67.8837 15.9309V23.1618C67.8837 23.4357 67.662 23.6574 67.3881 23.6574H65.2251C64.9512 23.6574 64.7295 23.4357 64.7295 23.1618V5.7252C64.7295 5.45135 64.9512 5.22967 65.2251 5.22967H67.3881C67.662 5.22967 67.8837 5.45135 67.8837 5.7252V7.0325C68.2895 6.46199 68.8487 5.98438 69.5626 5.60132ZM74.0224 9.47595C73.7144 8.92825 73.3085 8.51096 72.8064 8.2257C72.3027 7.94044 71.7583 7.797 71.1731 7.797C70.5879 7.797 70.0647 7.9437 69.5626 8.23711C69.0589 8.53052 68.653 8.95433 68.3466 9.51018C68.0385 10.066 67.8853 10.7197 67.8853 11.4695C67.8853 12.2193 68.0385 12.8746 68.3466 13.4288C68.6547 13.9847 69.0606 14.4085 69.5626 14.7019C70.0663 14.9953 70.6026 15.1404 71.1731 15.1404C71.7436 15.1404 72.3027 14.9904 72.8064 14.6905C73.3101 14.3905 73.7144 13.9618 74.0224 13.406C74.3305 12.8501 74.4837 12.19 74.4837 11.4239C74.4837 10.6577 74.3289 10.0236 74.0224 9.47595Z" fill="white"/>
<path d="M96.9688 5.61277C97.5345 5.28839 98.1686 5.10419 98.8744 5.06018C99.0553 5.04877 99.2102 5.19221 99.2102 5.37315V8.04806C99.2102 8.22085 99.07 8.36103 98.8972 8.36103H98.3772C97.3861 8.36103 96.6396 8.59413 96.1359 9.05869C95.6322 9.52489 95.3812 10.335 95.3812 11.4924V17.2383C95.3812 17.4991 95.1709 17.7094 94.9101 17.7094H92.6981C92.4373 17.7094 92.227 17.4991 92.227 17.2383V5.70079C92.227 5.43998 92.4373 5.22971 92.6981 5.22971H94.9101C95.1709 5.22971 95.3812 5.43998 95.3812 5.70079V7.1662C95.7871 6.50603 96.3168 5.98768 96.9688 5.61114V5.61277Z" fill="white"/>
<path d="M109.872 2.96541C111.125 3.60439 112.087 4.51559 112.755 5.70226C113.424 6.88894 113.758 8.28589 113.758 9.89149C113.758 11.4971 113.424 12.8908 112.755 14.0693C112.087 15.2478 111.125 16.1493 109.872 16.7719C108.618 17.3946 107.135 17.7076 105.424 17.7076H101.854C101.125 17.7076 100.535 17.1175 100.535 16.3889V3.32728C100.535 2.59865 101.125 2.00857 101.854 2.00857H105.424C107.135 2.00857 108.618 2.32806 109.872 2.96541ZM110.064 14.4084C111.13 13.3342 111.663 11.8296 111.663 9.89149C111.663 7.95336 111.125 6.4146 110.053 5.3192C108.979 4.22381 107.437 3.67448 105.424 3.67448H103.251C102.884 3.67448 102.586 3.97278 102.586 4.33954V15.3538C102.586 15.7205 102.884 16.0188 103.251 16.0188H105.424C107.451 16.0188 108.998 15.4826 110.064 14.4084Z" fill="white"/>
<path d="M117.078 5.85387V17.2202C117.078 17.4908 116.86 17.7092 116.589 17.7092H115.518C115.248 17.7092 115.029 17.4908 115.029 17.2202V5.85387C115.029 5.58328 115.248 5.36486 115.518 5.36486H116.589C116.86 5.36486 117.078 5.58328 117.078 5.85387ZM114.666 1.66302C114.583 1.81135 114.583 1.99392 114.666 2.14388C114.8 2.3835 114.966 2.60355 115.163 2.80242C115.36 2.99966 115.582 3.16592 115.822 3.29959C115.97 3.38272 116.153 3.38272 116.301 3.29959C116.54 3.16592 116.761 2.99966 116.959 2.80242C117.16 2.60192 117.328 2.37861 117.461 2.1341C117.543 1.98577 117.543 1.80483 117.461 1.6565C117.328 1.41362 117.16 1.19193 116.959 0.991435C116.767 0.799089 116.554 0.637714 116.322 0.50568C116.172 0.420918 115.986 0.417658 115.835 0.49916C115.589 0.634454 115.364 0.80398 115.161 1.00448C114.964 1.20171 114.798 1.4234 114.664 1.66302H114.666Z" fill="white"/>
<path d="M124.442 15.5055L128.078 5.58008C128.126 5.4513 128.248 5.36491 128.386 5.36491H129.862C130.093 5.36491 130.251 5.59801 130.166 5.81154L125.579 17.5006C125.531 17.6261 125.41 17.7093 125.275 17.7093H123.333C123.198 17.7093 123.077 17.6261 123.028 17.5006L118.441 5.81154C118.357 5.59638 118.515 5.36491 118.746 5.36491H120.246C120.383 5.36491 120.505 5.44967 120.554 5.57845L124.212 15.5055C124.251 15.6114 124.403 15.6114 124.442 15.5055Z" fill="white"/>
<path d="M141.731 12.3025H132.066C132.141 13.5185 132.559 14.4688 133.317 15.1518C134.075 15.8348 134.996 16.1771 136.076 16.1771C136.962 16.1771 137.702 15.9701 138.295 15.5577C138.797 15.2089 139.172 14.7606 139.421 14.2129C139.506 14.0254 139.689 13.9016 139.894 13.9016H141.452C141.606 13.9016 141.711 14.0532 141.663 14.1982C141.309 15.2496 140.678 16.1152 139.772 16.7965C138.781 17.5398 137.548 17.9115 136.078 17.9115C134.906 17.9115 133.86 17.649 132.935 17.1225C132.011 16.5977 131.287 15.8495 130.761 14.8812C130.234 13.913 129.972 12.7899 129.972 11.5135C129.972 10.2372 130.228 9.11899 130.738 8.15727C131.248 7.19554 131.965 6.45712 132.89 5.93877C133.814 5.42041 134.875 5.16123 136.076 5.16123C137.278 5.16123 138.283 5.41715 139.185 5.92736C140.086 6.43756 140.781 7.14011 141.268 8.03338C141.755 8.92665 142 9.93728 142 11.0636C142 11.3929 141.984 11.7385 141.953 12.1004C141.943 12.2145 141.845 12.3041 141.731 12.3041V12.3025ZM139.366 8.6202C139.02 8.0562 138.551 7.62913 137.957 7.33572C137.364 7.04231 136.707 6.89561 135.987 6.89561C134.95 6.89561 134.068 7.22651 133.34 7.88668C132.661 8.50121 132.254 9.33742 132.115 10.3937C132.099 10.5225 132.202 10.6349 132.332 10.6349H139.661C139.783 10.6349 139.884 10.5339 139.879 10.4116C139.85 9.72537 139.679 9.12714 139.366 8.61857V8.6202Z" fill="white"/>
<path d="M15.888 2.96847L15.8816 2.96057C15.869 2.94793 15.8563 2.93371 15.8421 2.92108C15.8199 2.89738 15.7962 2.87368 15.7725 2.84998C15.7487 2.82629 15.725 2.80259 15.7013 2.78047C15.687 2.76625 15.6728 2.75204 15.657 2.73782C15.657 2.73782 15.6554 2.73624 15.6538 2.73466C13.8266 0.970006 11.4236 0 8.87973 0C8.85125 0 8.82277 0 8.79588 0H2.58339C1.15644 0 0 1.15484 0 2.57984V7.45672C0 7.49306 0 7.53097 0 7.56731V16.7982C0 18.2263 1.16276 19.3827 2.59447 19.3764H8.2058C13.3947 19.3764 15.8864 16.5012 15.8864 16.5012C17.6535 14.678 18.6264 12.2736 18.6264 9.73481C18.6264 7.19605 17.6535 4.79157 15.8864 2.96847H15.888ZM1.23395 2.81365C1.23395 1.94001 1.94585 1.22909 2.82069 1.22909H7.67899C7.78024 1.22909 7.81188 1.30493 7.81979 1.33652C7.82928 1.3697 7.83877 1.45027 7.75018 1.50082C5.11933 3.00165 4.52134 5.80582 4.49919 5.9164C4.17804 7.28768 4.28562 8.70003 4.80768 10.0034C4.85039 10.1408 5.25222 11.3194 6.59691 12.5295C6.66652 12.5911 6.64753 12.6654 6.63646 12.6938C6.6238 12.727 6.59058 12.776 6.50515 12.7807C5.26329 12.7523 2.98206 12.2799 1.67533 9.43781C1.37792 8.79166 1.24186 8.20713 1.23395 7.54519V2.81207V2.81365ZM6.6507 9.34776C6.86427 8.96544 7.13004 8.61314 7.44486 8.29876C7.76759 7.97648 8.1267 7.70633 8.52061 7.49148C8.76266 7.35877 9.05849 7.36509 9.29737 7.50095C9.66756 7.71107 10.0077 7.97016 10.3146 8.27506C10.6326 8.59261 10.9015 8.94806 11.1151 9.33512C11.2464 9.57209 11.2464 9.8612 11.1151 10.0966C10.9015 10.4852 10.6326 10.8423 10.313 11.1614C9.9982 11.4758 9.64541 11.7428 9.26257 11.9544C9.02527 12.0856 8.73418 12.0856 8.49688 11.9544C8.11404 11.7412 7.76126 11.4758 7.44644 11.1614C7.13162 10.847 6.86585 10.4947 6.65228 10.1124C6.52097 9.87542 6.52097 9.58473 6.65228 9.34776H6.6507ZM3.37914 18.1726C2.39039 18.1726 1.23395 17.735 1.23395 16.4996V12.4094C1.23395 12.2341 1.36842 12.1646 1.40956 12.1472C1.42854 12.1393 1.47125 12.1251 1.52346 12.1251C1.58199 12.1251 1.65318 12.144 1.71963 12.2088L1.79556 12.2862C2.22586 12.7159 2.70995 13.0856 3.23518 13.3858C3.80469 13.7112 4.41851 13.9529 5.06079 14.1014C5.67303 14.2436 6.30266 14.3036 6.9228 14.2752C7.67899 14.242 8.42253 14.0825 9.12493 13.8044L9.15499 13.7934C9.37331 13.7254 10.4554 13.3542 11.5739 12.1693C11.6941 12.0413 11.9092 12.1409 11.8903 12.3146C11.8032 13.0998 11.4742 14.6006 10.245 15.8708C8.76899 17.3969 6.45928 18.171 3.38072 18.171L3.37914 18.1726ZM14.8945 15.7207C14.8644 15.7523 12.9439 17.7176 9.92859 18.0825C9.84474 18.092 9.8131 18.0367 9.80203 18.002C9.78937 17.9672 9.77988 17.9024 9.85107 17.8582C10.6769 17.3448 11.8127 16.4964 12.5325 15.3747C12.8489 14.8818 13.0799 14.2989 13.2571 13.5406C13.3283 13.2341 13.3805 12.9213 13.409 12.6117C13.515 11.5216 13.3599 10.4489 12.9502 9.42359C12.6069 8.56733 12.0754 7.78216 11.3698 7.08862C11.2654 6.98594 11.3081 6.86587 11.3239 6.83269C11.3381 6.8011 11.3951 6.70157 11.5232 6.70157C11.5296 6.70157 11.5375 6.70157 11.5454 6.70157C12.4455 6.77582 13.7586 7.10126 14.9024 8.23399C15.4118 8.73795 15.8073 9.33512 16.0778 10.0097C16.1949 10.302 16.2866 10.6053 16.3483 10.9102C16.6647 12.6022 16.1079 14.4458 14.896 15.7223L14.8945 15.7207ZM17.2105 8.61156C17.182 8.62262 17.1093 8.64 17.0586 8.56575C16.5223 7.76162 15.6443 6.65891 14.5069 5.97485C14.0054 5.67311 13.4153 5.45984 12.6496 5.30501C12.3411 5.24182 12.0263 5.20075 11.7147 5.18021C11.5565 5.16915 11.3998 5.16441 11.2432 5.16441C10.313 5.16441 9.40337 5.35399 8.53643 5.72998C7.37841 6.23078 6.55261 7.01121 6.0622 7.57521C6.01157 7.63366 5.94829 7.61786 5.92456 7.60996C5.89925 7.60048 5.8423 7.57047 5.8423 7.49306C5.84705 6.51515 6.10016 5.08226 7.28824 3.81683C7.77866 3.29391 8.36558 2.88158 9.0316 2.59247C9.3211 2.46767 9.62326 2.36656 9.92384 2.29547C11.6087 1.93211 13.4707 2.43449 14.7821 3.60671C14.8027 3.62567 16.8292 5.48195 17.2864 8.48044C17.2991 8.56417 17.2437 8.59893 17.2089 8.61156H17.2105Z" fill="white"/>
</svg>
