<svg width="116" height="21" viewBox="0 0 116 21" fill="none" xmlns="http://www.w3.org/2000/svg">
<path d="M18.0357 17.5478C17.2883 18.6103 16.2567 19.4413 15.0777 19.9883C13.646 20.6615 12.0459 21.0297 10.3616 20.9981C4.72962 20.8824 0.129319 16.3066 0.00299502 10.6788C-0.123329 5.31409 3.76113 0.832931 8.86673 0.00191862C8.98253 -0.0191197 9.03516 0.138666 8.92989 0.191262C7.22452 1.06435 3.48743 4.17802 12.0985 8.15425C20.1411 11.8886 19.5095 15.444 18.0357 17.5478Z" fill="#03ABC7"/>
<path d="M21.0149 11.4993C21.036 11.4993 21.0465 11.4888 21.0465 11.4678C21.0781 11.1417 21.0991 10.8051 21.0991 10.458C21.0991 6.08199 18.4358 2.33717 14.6461 0.727741C14.6461 0.727741 14.6355 0.72774 14.6355 0.717221C14.5197 0.664626 14.4039 0.62255 14.2882 0.580474C12.3722 -0.0927515 11.288 0.811896 11.288 0.811896C10.53 1.26422 10.3826 2.31613 10.9932 2.94728C11.2564 3.22078 11.6564 3.51531 12.267 3.77829C14.3724 4.7145 20.5833 7.39688 20.9833 11.4573C20.9833 11.4888 20.9939 11.4993 21.0149 11.4993Z" fill="#03ABC7"/>
<path d="M33.9105 5.93472C33.9526 6.01887 33.9736 6.11354 33.9736 6.20821C33.9736 6.30289 33.9526 6.38704 33.921 6.46067C33.8894 6.54483 33.8368 6.60794 33.7841 6.67106C33.721 6.73417 33.6578 6.77625 33.5736 6.80781C33.4052 6.88144 33.2052 6.87092 33.0367 6.79729C32.9525 6.75521 32.8788 6.69209 32.8156 6.60794C32.7525 6.53431 32.6788 6.46067 32.6156 6.40808C32.5525 6.34496 32.4788 6.30289 32.4156 6.26081C32.1314 6.08198 31.7735 5.98731 31.3524 5.98731C30.805 5.98731 30.3629 6.1451 30.0155 6.45015C29.647 6.75521 29.4681 7.15494 29.4681 7.61778C29.4681 8.26997 29.9313 8.7854 30.8471 9.16409L32.0156 9.63746C32.9314 10.0161 33.6052 10.4685 34.0157 10.9839C34.4263 11.4888 34.6263 12.1305 34.6263 12.8984C34.6263 13.9082 34.2894 14.7603 33.6157 15.4335C32.9314 16.1067 32.0682 16.4433 31.0576 16.4433C30.0892 16.4433 29.2891 16.1593 28.668 15.5808C28.3101 15.2547 28.0153 14.8339 27.8153 14.329C27.8153 14.329 27.689 14.0239 27.689 13.8556C27.689 13.761 27.7101 13.6663 27.7416 13.5821C27.7837 13.498 27.8364 13.4138 27.8995 13.3507C27.9627 13.2876 28.0364 13.235 28.1311 13.1929C28.3627 13.0877 28.647 13.1298 28.8364 13.2876C28.9628 13.3928 29.047 13.519 29.0891 13.6768C29.1733 13.9608 29.2681 14.1712 29.3838 14.308C29.7839 14.8655 30.3629 15.139 31.1208 15.139C31.7208 15.139 32.2261 14.9391 32.6156 14.5289C33.0157 14.1291 33.2157 13.6137 33.2157 13.0036C33.2157 12.7616 33.1841 12.5407 33.1209 12.3304C33.0894 12.2252 33.0367 12.12 32.9841 12.0253C32.9314 11.9306 32.8683 11.8465 32.7946 11.7518C32.7209 11.6677 32.6367 11.5835 32.5419 11.4993C32.4472 11.4257 32.3525 11.3416 32.2367 11.2679C32.1209 11.1943 32.0051 11.1207 31.8682 11.0575C31.7419 10.9944 31.5945 10.9208 31.4471 10.8577L30.3313 10.3843C28.7943 9.74265 28.0469 8.82748 28.0469 7.58622C28.0469 6.75521 28.3522 6.08198 28.9838 5.52447C29.6154 4.96696 30.4155 4.68294 31.3735 4.68294C32.3104 4.68294 33.0894 5.00903 33.742 5.69278C33.721 5.71382 33.8578 5.84004 33.9105 5.93472Z" fill="white"/>
<path d="M40.6793 11.4467L44.3111 15.9279C44.3848 16.0226 44.469 16.1067 44.5743 16.1593C44.7638 16.254 45.0059 16.2645 45.1849 16.1804C45.2691 16.1383 45.3533 16.0857 45.4165 16.0226C45.4796 15.9595 45.5323 15.8753 45.5744 15.7912C45.6165 15.707 45.627 15.6123 45.627 15.5177C45.627 15.423 45.6165 15.3388 45.5849 15.2547C45.5533 15.1705 45.5112 15.1074 45.4586 15.0338L41.6162 10.4264C41.511 10.2896 41.4688 10.1529 41.4794 9.98459C41.4899 9.8268 41.5636 9.69005 41.6794 9.57434L41.7952 9.45863L45.2691 5.97679C45.3217 5.9242 45.3638 5.86108 45.3954 5.78745C45.427 5.71381 45.4375 5.62966 45.4375 5.54551C45.4375 5.45084 45.4165 5.3772 45.3849 5.29305C45.3533 5.20889 45.3007 5.14578 45.2375 5.08266C45.1743 5.01955 45.1112 4.97747 45.027 4.94592C44.9533 4.91436 44.8691 4.89332 44.7848 4.89332C44.5848 4.89332 44.4375 4.95644 44.3111 5.1037L44.248 5.16682L40.2161 9.31136C39.9845 9.51123 39.8161 9.32188 39.7951 9.27981C39.7529 9.21669 39.7108 9.14306 39.7108 9.04838L39.7003 5.59811C39.7003 5.49291 39.6793 5.40876 39.6477 5.32461C39.6161 5.24045 39.5635 5.16682 39.5003 5.1037C39.4371 5.04059 39.3634 4.98799 39.2792 4.95644C39.1108 4.8828 38.9108 4.8828 38.7424 4.95644C38.6581 4.98799 38.5844 5.04059 38.5213 5.1037C38.4581 5.16682 38.4055 5.24045 38.3739 5.32461C38.3423 5.40876 38.3213 5.50343 38.3213 5.59811V15.5492C38.3213 15.6439 38.3423 15.728 38.3739 15.8122C38.4055 15.8963 38.4581 15.97 38.5213 16.0331C38.5844 16.0962 38.6581 16.1488 38.7424 16.1804C38.9108 16.254 39.1108 16.254 39.2792 16.1804C39.3634 16.1488 39.4371 16.0962 39.5003 16.0436C39.5635 15.9805 39.6161 15.9174 39.6477 15.8332C39.6793 15.7596 39.7003 15.6754 39.7003 15.5808L39.7108 11.8465C39.7108 11.6361 39.7529 11.4783 39.8372 11.3836C39.953 11.2574 40.0688 11.2153 40.153 11.2153C40.1635 11.2153 40.174 11.2153 40.1951 11.2153C40.1951 11.2048 40.4583 11.1943 40.6793 11.4467Z" fill="white"/>
<path d="M51.1853 15.8017C51.2168 15.7175 51.2379 15.6228 51.2379 15.5282V5.62966C51.2379 5.51395 51.2168 5.4298 51.1853 5.34564C51.1537 5.26149 51.101 5.18786 51.0379 5.12474C50.9747 5.06163 50.901 5.00903 50.8063 4.96696C50.7221 4.92488 50.6273 4.91436 50.5326 4.91436C50.4378 4.91436 50.3431 4.9354 50.2589 4.96696C50.1747 4.99851 50.101 5.05111 50.0378 5.11422C49.9747 5.17734 49.922 5.25097 49.8904 5.34564C49.8589 5.4298 49.8378 5.52447 49.8378 5.61914V15.4966C49.8378 15.5913 49.8589 15.686 49.901 15.7701C49.9431 15.8648 49.9852 15.9384 50.0589 16.0121C50.122 16.0857 50.2063 16.1383 50.2905 16.1804C50.4589 16.2645 50.6589 16.254 50.8168 16.1909C50.901 16.1593 50.9747 16.1067 51.0379 16.0436C51.0905 15.9595 51.1432 15.8858 51.1853 15.8017Z" fill="white"/>
<path d="M71.8392 5.34564C71.8077 5.4298 71.7866 5.52447 71.7866 5.61914V16.0015C71.7866 16.0646 71.8182 16.1172 71.8708 16.1698C71.9234 16.2224 71.9761 16.2435 72.0392 16.2435H76.0185C76.1027 16.2435 76.1869 16.2224 76.2606 16.1909C76.3343 16.1593 76.3974 16.1172 76.4501 16.0541C76.5027 15.991 76.5553 15.9279 76.5869 15.8437C76.6185 15.7701 76.6395 15.686 76.6395 15.5913C76.6395 15.5071 76.6185 15.423 76.5869 15.3494C76.5553 15.2652 76.5132 15.2021 76.4501 15.1495C76.3974 15.0969 76.3343 15.0443 76.25 15.0127C76.1764 14.9812 76.0921 14.9601 75.9974 14.9601H73.7762C73.6078 14.9496 73.4709 14.897 73.3551 14.7813C73.2498 14.6761 73.1867 14.5394 73.1656 14.3816V5.62966C73.1656 5.52447 73.1446 5.4298 73.113 5.34564C73.0814 5.26149 73.0288 5.18786 72.9656 5.12474C72.9025 5.06163 72.8288 5.00903 72.7446 4.97747C72.6603 4.9354 72.5656 4.92488 72.4709 4.92488C72.3761 4.92488 72.2814 4.94592 72.2077 4.97747C72.1235 5.00903 72.0498 5.06163 71.9866 5.12474C71.9234 5.18786 71.8708 5.26149 71.8392 5.34564Z" fill="white"/>
<path d="M81.5767 15.8017C81.6083 15.7175 81.6293 15.6228 81.6293 15.5282V5.62966C81.6293 5.51395 81.6083 5.4298 81.5767 5.33513C81.5451 5.25097 81.4925 5.17734 81.4293 5.11422C81.3662 5.05111 81.2925 4.99851 81.1977 4.95644C81.1135 4.91436 81.0188 4.90384 80.924 4.90384C80.8293 4.90384 80.7345 4.92488 80.6503 4.95644C80.5661 4.98799 80.4924 5.04059 80.4293 5.1037C80.3661 5.16682 80.3135 5.24045 80.2819 5.33513C80.2503 5.41928 80.2293 5.51395 80.2293 5.60862V15.4861C80.2293 15.5808 80.2503 15.6754 80.2924 15.7596C80.324 15.8543 80.3766 15.9279 80.4503 16.0015C80.5135 16.0752 80.5872 16.1278 80.6819 16.1698C80.8503 16.254 81.0398 16.2435 81.2083 16.1804C81.2925 16.1488 81.3662 16.0962 81.4293 16.0331C81.482 15.97 81.5346 15.8858 81.5767 15.8017Z" fill="white"/>
<path d="M115.284 5.93472C115.326 6.01887 115.347 6.11354 115.347 6.20821C115.347 6.30289 115.326 6.38704 115.295 6.46067C115.263 6.54483 115.21 6.60794 115.158 6.67106C115.095 6.73417 115.032 6.77625 114.947 6.80781C114.779 6.88144 114.579 6.87092 114.41 6.79729C114.326 6.75521 114.253 6.69209 114.189 6.60794C114.126 6.53431 114.052 6.46067 113.989 6.40808C113.926 6.34496 113.852 6.30289 113.789 6.26081C113.505 6.08198 113.147 5.98731 112.726 5.98731C112.179 5.98731 111.737 6.1451 111.389 6.45015C111.021 6.75521 110.842 7.15494 110.842 7.61778C110.842 8.26997 111.305 8.7854 112.221 9.16409L113.389 9.63746C114.305 10.0161 114.979 10.4685 115.389 10.9839C115.8 11.4888 116 12.1305 116 12.8984C116 13.9082 115.663 14.7603 114.989 15.4335C114.305 16.1067 113.442 16.4433 112.431 16.4433C111.463 16.4433 110.663 16.1593 110.042 15.5808C109.684 15.2547 109.389 14.8339 109.189 14.329L109.178 14.3185C109.063 14.0134 109.063 13.8661 109.063 13.8661C109.063 13.7715 109.084 13.6768 109.115 13.5927C109.157 13.5085 109.21 13.4243 109.273 13.3612C109.336 13.2981 109.41 13.2455 109.505 13.2034C109.747 13.0983 110.021 13.1403 110.21 13.2981C110.336 13.4033 110.421 13.5295 110.463 13.6873C110.547 13.9713 110.642 14.1817 110.758 14.3185C111.158 14.876 111.737 15.1495 112.495 15.1495C113.095 15.1495 113.6 14.9496 113.989 14.5394C114.389 14.1396 114.589 13.6242 114.589 13.0141C114.589 12.7722 114.558 12.5513 114.495 12.3409C114.463 12.2357 114.41 12.1305 114.358 12.0358C114.305 11.9411 114.242 11.857 114.168 11.7623C114.095 11.6782 114.01 11.594 113.916 11.5099C113.821 11.4362 113.726 11.3521 113.61 11.2784C113.495 11.2048 113.379 11.1312 113.242 11.0681C113.116 11.0049 112.968 10.9313 112.821 10.8682L111.705 10.3948C110.168 9.75316 109.421 8.838 109.421 7.59674C109.421 6.76573 109.726 6.0925 110.358 5.53499C110.989 4.97748 111.789 4.69346 112.747 4.69346C113.684 4.69346 114.463 5.01955 115.116 5.7033C115.105 5.71382 115.242 5.85056 115.284 5.93472Z" fill="white"/>
<path d="M92.3353 11.9727C92.3774 11.9411 92.4195 11.8886 92.4406 11.8254C92.4616 11.7728 92.4616 11.7308 92.4616 11.6887V5.55603C92.4616 5.46135 92.4827 5.3772 92.5248 5.30357C92.5669 5.21941 92.6195 5.1563 92.6827 5.09318C92.7459 5.03007 92.8195 4.98799 92.9038 4.94592C93.0722 4.87228 93.2617 4.8828 93.4301 4.95644C93.5143 4.99851 93.5985 5.05111 93.6617 5.11422C93.7249 5.17734 93.7775 5.25097 93.8091 5.33513C93.8407 5.41928 93.8617 5.51395 93.8617 5.60862V15.6754C93.8617 15.7491 93.8617 15.8227 93.8512 15.8963C93.8512 15.8963 93.8407 15.9595 93.8301 16.0015C93.7775 16.1488 93.6301 16.2435 93.4617 16.2435C93.3248 16.2435 93.2196 16.1804 93.1459 16.0857L93.1353 16.0752L88.2929 9.14305C88.2719 9.10098 88.2508 9.10098 88.2508 9.10098C88.1982 9.04838 88.1245 9.01683 88.0508 9.01683C87.9034 9.01683 87.7771 9.13254 87.7455 9.27981C87.7455 9.27981 87.7455 9.29032 87.7455 9.30084V15.5492C87.7455 15.6439 87.7245 15.7386 87.6929 15.8227C87.6613 15.9069 87.6087 15.9805 87.5455 16.0436C87.4824 16.1067 87.4087 16.1593 87.3245 16.1909C87.156 16.2645 86.956 16.2645 86.7876 16.1909C86.7034 16.1488 86.6297 16.1067 86.5665 16.0436C86.5033 15.9805 86.4507 15.9069 86.4191 15.8227C86.3876 15.7386 86.3665 15.6544 86.356 15.5597V5.30357C86.356 5.09318 86.5349 4.91436 86.7455 4.91436C86.8823 4.91436 86.9981 4.97747 87.0718 5.08266L87.0823 5.1037L91.8721 11.8675C91.8721 11.857 92.0721 12.141 92.3353 11.9727Z" fill="white"/>
<path d="M55.4276 15.4651C55.4276 15.4756 55.4276 15.4966 55.4276 15.5177C55.4276 15.6123 55.4487 15.707 55.4803 15.7912C55.5224 15.8753 55.5645 15.9489 55.6382 16.0121C55.7013 16.0752 55.775 16.1278 55.8698 16.1698C56.1119 16.275 56.3856 16.233 56.5751 16.0857C56.6909 15.991 56.7751 15.8753 56.8172 15.7175L56.8277 15.6965L57.891 9.7742C57.9015 9.73213 57.912 9.67953 57.9331 9.63746C57.9646 9.57434 58.0068 9.53226 58.0489 9.5007C58.1226 9.44811 58.2278 9.45863 58.312 9.51122C58.3752 9.5533 58.4278 9.61642 58.4699 9.72161L61.1649 15.8017L61.1859 15.8543C61.2491 15.97 61.3543 16.0436 61.4912 16.0436C61.628 16.0436 61.7438 15.97 61.7965 15.8543V15.8437L64.5545 9.8268C64.5967 9.73213 64.6388 9.65849 64.6809 9.6059C64.7335 9.53226 64.7967 9.49019 64.8598 9.47967C64.9546 9.44811 65.0493 9.47967 65.1125 9.5533C65.1546 9.59538 65.1756 9.65849 65.1862 9.72161L66.1336 15.6439V15.6544C66.1547 15.8332 66.2389 15.9595 66.3652 16.0752C66.5652 16.254 66.86 16.3066 67.1021 16.1909C67.1863 16.1488 67.26 16.0962 67.3337 16.0331C67.3968 15.97 67.439 15.8963 67.4811 15.8122C67.5653 15.6334 67.5232 15.4019 67.5232 15.4019L65.723 5.18786V5.17734C65.702 5.07215 65.6072 4.99851 65.502 4.99851C65.4072 4.99851 65.3335 5.05111 65.302 5.12474V5.13526L61.807 13.1298V13.1403C61.7544 13.2455 61.6491 13.3192 61.5333 13.3192C61.4807 13.3192 61.428 13.3086 61.3859 13.2771C61.2912 13.235 61.2385 13.1193 61.2385 13.1193L57.8594 5.12474C57.8278 5.05111 57.7436 4.99851 57.6594 4.99851C57.5541 4.99851 57.4699 5.07215 57.4488 5.16682V5.17734L55.4382 15.4019C55.4382 15.4019 55.4276 15.4335 55.4276 15.4651Z" fill="white"/>
<path d="M100.073 9.31136C100.094 9.34292 100.125 9.36396 100.157 9.37448C100.262 9.42707 100.388 9.39552 100.473 9.31136L100.483 9.30084L104.515 5.16682L104.578 5.1037C104.705 4.96696 104.862 4.89332 105.052 4.89332C105.136 4.89332 105.22 4.91436 105.294 4.94592C105.378 4.97748 105.441 5.03007 105.505 5.08267C105.568 5.14578 105.61 5.2089 105.652 5.29305C105.684 5.36668 105.705 5.45084 105.705 5.54551C105.705 5.62966 105.694 5.71381 105.662 5.78745C105.631 5.86108 105.589 5.9242 105.536 5.97679L102.062 9.45863L101.946 9.57434C101.831 9.69005 101.757 9.8268 101.746 9.98459C101.736 10.1424 101.778 10.2896 101.883 10.4264L105.726 15.0338C105.778 15.0969 105.82 15.1705 105.852 15.2547C105.884 15.3388 105.894 15.423 105.894 15.5177C105.894 15.6123 105.873 15.707 105.841 15.7912C105.799 15.8753 105.747 15.9595 105.684 16.0226C105.61 16.0857 105.536 16.1383 105.452 16.1804C105.262 16.2645 105.031 16.254 104.841 16.1593C104.736 16.1067 104.652 16.0331 104.578 15.9279L100.946 11.4467C100.904 11.3836 100.831 11.331 100.736 11.2784C100.652 11.2258 100.557 11.2048 100.462 11.2048C100.452 11.2048 100.441 11.2048 100.42 11.2048C100.336 11.2153 100.21 11.2469 100.104 11.3731C100.02 11.4783 99.9779 11.6256 99.9779 11.836L99.9674 15.5703C99.9674 15.6649 99.9463 15.7491 99.9147 15.8227C99.8726 15.9069 99.8305 15.97 99.7674 16.0331C99.7042 16.0962 99.6305 16.1383 99.5463 16.1698C99.3779 16.233 99.1779 16.2435 99.0094 16.1698C98.9252 16.1278 98.8515 16.0857 98.7884 16.0226C98.7252 15.9595 98.6726 15.8858 98.641 15.8017C98.6094 15.7175 98.5883 15.6334 98.5883 15.5387V5.58759C98.5883 5.49291 98.6094 5.39824 98.641 5.31409C98.6726 5.22993 98.7252 5.1563 98.7884 5.09319C98.8515 5.03007 98.9252 4.97748 99.0094 4.94592C99.1779 4.87228 99.3779 4.87228 99.5463 4.94592C99.6305 4.97748 99.7042 5.03007 99.7674 5.09319C99.8305 5.1563 99.8832 5.22993 99.9147 5.31409C99.9463 5.39824 99.9674 5.48239 99.9674 5.58759L99.9779 9.03786C99.9884 9.12202 100.009 9.20617 100.062 9.26929L100.073 9.31136Z" fill="white"/>
</svg>
