<svg width="140" height="21" viewBox="0 0 140 21" fill="none" xmlns="http://www.w3.org/2000/svg">
<path d="M0 5.31089V0.875907H15.3275V5.31089H10.3762V18.3165H4.95126V5.31089H0Z" fill="white"/>
<path d="M19.8389 12.6286C19.2411 12.9169 18.5757 13.0832 17.9103 13.2273C16.8162 13.4602 16.2523 13.7263 16.241 14.58C16.241 15.1676 16.8726 15.7553 17.7636 15.7553C18.6546 15.7553 19.7487 15.1122 19.8276 13.7928V12.6286H19.8389ZM24.5195 15.5002C24.5195 16.4538 24.5533 17.5182 25.0947 18.3275L20.0983 18.2943C19.9742 17.9506 19.9066 17.4405 19.9291 17.0968H19.884C18.8351 18.261 17.3238 18.5936 15.7448 18.5826C13.2748 18.5715 11.2221 17.3851 11.2334 14.7352C11.2559 10.7437 16.0155 10.9211 18.5193 10.4665C19.1847 10.3446 19.8614 10.1561 19.8614 9.3578C19.8614 8.55951 19.0494 8.18253 18.2599 8.18253C16.7486 8.18253 16.4441 8.92539 16.4215 9.45759L11.865 9.43541C12.0342 5.88743 15.4515 5.32197 18.4967 5.33306C24.6322 5.36632 24.5758 7.87208 24.5533 10.3113L24.5195 15.5002Z" fill="white"/>
<path d="M32.0873 8.92539C30.3279 8.92539 29.9219 10.5442 29.9106 12.0299C29.9106 13.5378 30.2828 15.1787 32.0422 15.1787C33.8017 15.1787 34.2077 13.5599 34.219 12.0521C34.219 10.5663 33.8468 8.93648 32.0873 8.92539ZM25.2413 0.853734H30.1474L30.1136 7.11814H30.1587C30.9031 6.05374 32.2227 5.42176 33.6889 5.43285C37.9973 5.45502 39.1364 9.06953 39.1251 12.041C39.1026 15.2009 37.3318 18.7267 33.6889 18.7045C31.2866 18.6934 30.5535 17.7843 29.9331 16.9749H29.888V18.3386H25.2526V0.853734H25.2413Z" fill="white"/>
<path d="M46.005 4.39063C44.144 4.39063 43.8846 6.15353 43.8846 7.49511C43.8846 8.83669 44.1102 10.6329 45.9712 10.6439C47.8321 10.6439 48.0915 8.85887 48.0915 7.51729C48.0915 6.17571 47.8659 4.40172 46.005 4.39063ZM45.9373 14.1476C41.1101 14.1254 38.9447 10.9655 38.9672 7.46185C38.9898 3.95822 41.1891 0.853734 46.0163 0.886996C50.8435 0.909171 53.0089 4.03583 52.9864 7.55055C52.9638 11.0542 50.7645 14.1808 45.9373 14.1587" fill="white"/>
<path d="M58.1632 4.37954C56.3023 4.37954 56.0429 6.14244 56.0429 7.48402C56.0429 8.8256 56.2684 10.6218 58.1294 10.6329C59.9903 10.6329 60.2497 8.84778 60.2497 7.5062C60.2497 6.16462 60.0242 4.39063 58.1632 4.37954ZM58.1068 14.1476C53.2796 14.1143 51.1142 10.9655 51.1367 7.46185C51.1593 3.95822 53.3586 0.853734 58.1858 0.886996C63.013 0.909171 65.1784 4.04692 65.1559 7.55055C65.1333 11.0542 62.934 14.1808 58.1068 14.1587" fill="white"/>
<path d="M65.686 0.875907H70.4793V18.3165H65.686V0.875907Z" fill="white"/>
<path d="M79.4232 12.5842C78.8254 12.8725 78.16 13.0388 77.4946 13.183C76.4005 13.4158 75.8366 13.6819 75.8253 14.5356C75.8253 15.1233 76.4569 15.7109 77.3479 15.7109C78.2389 15.7109 79.333 15.0678 79.4119 13.7484V12.5842H79.4232ZM84.1376 15.4559C84.1376 16.4094 84.0812 17.5182 84.6226 18.3275H79.6939C79.5698 17.9838 79.4909 17.4073 79.5134 17.0636H79.4683C78.4194 18.2278 76.9081 18.5604 75.3291 18.5493C72.8478 18.5382 70.8064 17.3518 70.8177 14.7019C70.8402 10.7105 75.5885 10.8879 78.0923 10.4333C78.7577 10.3113 79.4345 10.1228 79.4345 9.32454C79.4345 8.52624 78.6224 8.14927 77.8329 8.14927C76.3216 8.14927 76.0171 8.89213 75.9945 9.42432L71.438 9.40215C71.6072 5.85417 75.0246 5.27762 78.0698 5.2998C84.2053 5.33306 84.1489 7.83882 84.1263 10.2781V15.467H84.1376V15.4559Z" fill="white"/>
<path d="M40.8169 14.1476C44.3019 15.6776 47.9111 16.354 51.8473 16.3762C55.9865 16.3983 59.1219 15.6333 63.0919 14.1476L63.0694 18.3608C59.5166 20.0904 55.6594 21.0218 51.8247 20.9996C47.6404 20.9774 44.629 20.1348 40.7943 18.3608L40.8169 14.1476Z" fill="white"/>
<path d="M96.7018 0.942432V1.88486H88.7167V9.14714H95.6981V10.0896H88.7167V18.3386H87.5775V0.953521H96.7018V0.942432Z" fill="white"/>
<path d="M109.954 12.041H98.1342C98.168 13.2495 98.4387 14.2584 98.935 15.09C99.4425 15.9105 100.097 16.5314 100.92 16.9527C101.743 17.3629 102.646 17.5736 103.616 17.5736C104.586 17.5736 106.086 17.2521 106.988 16.5979C107.89 15.9437 108.465 15.0567 108.702 13.9369H109.886C109.616 15.3118 108.928 16.4205 107.822 17.2631C106.717 18.1169 105.307 18.5382 103.616 18.5382C101.924 18.5382 101.202 18.261 100.187 17.6956C99.1831 17.1301 98.3936 16.3318 97.8184 15.2785C97.2432 14.2252 96.9613 13.0056 96.9613 11.5975C96.9613 10.1894 97.2432 8.96974 97.8071 7.92752C98.3711 6.8853 99.1606 6.08701 100.164 5.53263C101.168 4.97826 102.319 4.70108 103.616 4.70108C104.913 4.70108 106.063 4.97826 107.033 5.53263C108.003 6.08701 108.736 6.81878 109.232 7.73903C109.74 8.65929 109.988 9.64607 109.988 10.6994C109.988 11.7527 109.965 11.7416 109.943 12.041H109.954ZM108.228 8.09383C107.755 7.27336 107.101 6.65247 106.277 6.25332C105.454 5.85417 104.563 5.64351 103.604 5.64351C102.646 5.64351 101.766 5.84308 100.943 6.25332C100.131 6.66355 99.4651 7.27336 98.9575 8.09383C98.45 8.9143 98.168 9.92326 98.1342 11.1207H108.871C108.916 9.93435 108.702 8.92539 108.228 8.09383Z" fill="white"/>
<path d="M124.695 12.041H112.875C112.909 13.2495 113.18 14.2584 113.676 15.09C114.184 15.9105 114.838 16.5314 115.661 16.9527C116.484 17.3629 117.387 17.5736 118.357 17.5736C119.327 17.5736 120.827 17.2521 121.729 16.5979C122.631 15.9437 123.206 15.0567 123.443 13.9369H124.627C124.357 15.3118 123.669 16.4205 122.563 17.2631C121.458 18.1169 120.048 18.5382 118.357 18.5382C116.665 18.5382 115.943 18.261 114.928 17.6956C113.924 17.1301 113.135 16.3318 112.559 15.2785C111.984 14.2252 111.702 13.0056 111.702 11.5975C111.702 10.1894 111.984 8.96974 112.548 7.92752C113.112 6.8853 113.902 6.08701 114.905 5.53263C115.909 4.97826 117.06 4.70108 118.357 4.70108C119.654 4.70108 120.804 4.97826 121.774 5.53263C122.744 6.08701 123.477 6.81878 123.973 7.73903C124.481 8.65929 124.729 9.64607 124.729 10.6994C124.729 11.7527 124.706 11.7416 124.684 12.041H124.695ZM122.969 8.09383C122.496 7.27336 121.842 6.65247 121.018 6.25332C120.195 5.85417 119.304 5.64351 118.345 5.64351C117.387 5.64351 116.507 5.84308 115.684 6.25332C114.872 6.66355 114.206 7.27336 113.699 8.09383C113.191 8.9143 112.909 9.92326 112.875 11.1207H123.612C123.657 9.93435 123.443 8.92539 122.969 8.09383Z" fill="white"/>
<path d="M127.3 7.9497C127.864 6.90748 128.643 6.10918 129.646 5.54372C130.65 4.97826 131.789 4.70108 133.064 4.70108C134.338 4.70108 135.669 5.04479 136.695 5.73221C137.722 6.41963 138.444 7.30663 138.861 8.39319V0H140V18.3275H138.861V14.7574C138.455 15.8661 137.756 16.7642 136.741 17.4738C135.737 18.1723 134.507 18.5271 133.064 18.5271C131.62 18.5271 130.65 18.2388 129.646 17.6734C128.643 17.1079 127.864 16.2985 127.3 15.2452C126.736 14.1919 126.455 12.9834 126.455 11.5864C126.455 10.1894 126.736 8.98083 127.3 7.9497ZM138.105 8.48189C137.609 7.58381 136.932 6.8853 136.075 6.39745C135.218 5.90961 134.259 5.66568 133.199 5.66568C132.139 5.66568 131.113 5.89852 130.278 6.37528C129.443 6.84095 128.778 7.52837 128.315 8.41537C127.842 9.30236 127.605 10.3668 127.605 11.5864C127.605 12.806 127.842 13.8704 128.315 14.7574C128.789 15.6444 129.443 16.3318 130.289 16.8086C131.135 17.2853 132.105 17.5292 133.199 17.5292C134.293 17.5292 135.218 17.2853 136.086 16.7975C136.955 16.3096 137.632 15.6222 138.116 14.713C138.601 13.815 138.85 12.7727 138.85 11.5753C138.85 10.3778 138.601 9.36889 138.105 8.47081V8.48189Z" fill="white"/>
</svg>
