<svg width="212" height="21" viewBox="0 0 212 21" fill="none" xmlns="http://www.w3.org/2000/svg">
<path d="M5.10129 4.65759H0V0.0346722H15.7919V4.65759H10.6906V18.2143H5.10129V4.65759Z" fill="white"/>
<path d="M20.44 12.2738C19.8242 12.5743 19.1386 12.7477 18.453 12.8979C17.3258 13.1406 16.7448 13.418 16.7332 14.3079C16.7332 14.9205 17.3839 15.533 18.3019 15.533C19.4523 15.533 20.3471 14.8627 20.4284 13.4874V12.2738H20.44ZM25.2741 15.2672C25.2741 16.2611 25.3089 17.3706 25.8667 18.2143L20.7189 18.1796C20.5911 17.8213 20.5214 17.2897 20.5446 16.9314H20.4981C19.4175 18.1449 17.8603 18.4917 16.2335 18.4801C13.6887 18.4685 11.5738 17.2319 11.5854 14.4697C11.6086 10.3091 16.5124 10.494 19.0921 10.0202C19.7777 9.89304 20.4749 9.69657 20.4749 8.86444C20.4749 7.97453 19.6382 7.63937 18.8248 7.63937C17.2677 7.63937 16.954 8.41371 16.9307 8.96846L12.2361 8.94534C12.4104 5.24701 15.9314 4.65759 19.0688 4.66915C25.3903 4.70382 25.3322 7.31576 25.3089 9.85837L25.2741 15.2672Z" fill="white"/>
<path d="M33.0596 8.41371C31.2469 8.41371 30.8285 10.1011 30.8169 11.6497C30.8169 13.2215 31.2004 14.932 33.0132 14.932C34.8259 14.932 35.2442 13.2447 35.2559 11.6729C35.2559 10.1242 34.8724 8.42526 33.0596 8.41371ZM26.0178 0H31.0726L31.0377 6.52987H31.0842C31.8511 5.42037 33.2107 4.7616 34.7213 4.77316C39.1603 4.79628 40.3339 8.56395 40.3223 11.6613C40.2991 14.9551 38.4747 18.6304 34.7213 18.6072C32.2462 18.5957 31.4909 17.648 30.8518 16.8043H30.8053V18.2258H26.0294V0H26.0178Z" fill="white"/>
<path d="M47.399 3.68678C45.4817 3.68678 45.2144 5.52439 45.2144 6.92282C45.2144 8.32125 45.4468 10.1935 47.3642 10.2051C49.2815 10.2051 49.5488 8.34436 49.5488 6.94593C49.5488 5.5475 49.3164 3.69833 47.399 3.68678ZM47.3409 13.8572C42.3675 13.8341 40.1364 10.5402 40.1596 6.88815C40.1829 3.23604 42.4488 4.49056e-07 47.4223 0.0346723C52.3957 0.0577869 54.6268 3.31694 54.6036 6.9806C54.5804 10.6327 52.3144 13.8919 47.3409 13.8687" fill="white"/>
<path d="M59.9373 3.68678C58.02 3.68678 57.7527 5.52439 57.7527 6.92282C57.7527 8.32125 57.9851 10.1935 59.9024 10.2051C61.8198 10.2051 62.087 8.34436 62.087 6.94593C62.087 5.5475 61.8546 3.69833 59.9373 3.68678ZM59.8676 13.8572C54.8941 13.8225 52.663 10.5402 52.6863 6.88815C52.7095 3.23604 54.9754 4.49056e-07 59.9489 0.0346723C64.9224 0.0577869 67.1535 3.3285 67.1302 6.9806C67.107 10.6327 64.841 13.8919 59.8676 13.8687" fill="white"/>
<path d="M67.6764 0.0346722H72.615V18.2143H67.6764V0.0346722Z" fill="white"/>
<path d="M81.8299 12.2276C81.214 12.5281 80.5284 12.7015 79.8428 12.8517C78.7156 13.0944 78.1346 13.3718 78.123 14.2617C78.123 14.8742 78.7737 15.4868 79.6917 15.4868C80.8421 15.4868 81.7369 14.8164 81.8182 13.4411V12.2276H81.8299ZM86.6871 15.221C86.6871 16.2149 86.629 17.3706 87.1868 18.2143H82.1088C81.9809 17.856 81.8996 17.255 81.9228 16.8968H81.8763C80.7957 18.1103 79.2385 18.457 77.6117 18.4454C75.0553 18.4339 72.952 17.1972 72.9636 14.4351C72.9868 10.2744 77.879 10.4593 80.4587 9.9855C81.1443 9.85837 81.8415 9.66189 81.8415 8.82977C81.8415 7.93986 81.0048 7.6047 80.1914 7.6047C78.6343 7.6047 78.3205 8.37904 78.2973 8.93379L73.6027 8.91067C73.777 5.21234 77.298 4.61136 80.4354 4.63447C86.7569 4.66915 86.6988 7.28109 86.6755 9.8237V15.2325L86.6871 15.221Z" fill="white"/>
<path d="M42.0537 13.8572C45.6444 15.4521 49.3629 16.1571 53.4183 16.1802C57.683 16.2033 60.9134 15.4059 65.0037 13.8572L64.9805 18.249C61.3201 20.0519 57.346 21.0227 53.3951 20.9996C49.084 20.9765 45.9814 20.0981 42.0305 18.249L42.0537 13.8572Z" fill="white"/>
<path d="M103.746 18.2143H102.572L91.8698 1.99941V18.2143H90.6961V0.104016H91.8698L102.572 16.2727V0.104016H103.746V18.2143Z" fill="white"/>
<path d="M119.119 11.6497H106.941C106.976 12.9095 107.255 13.9612 107.778 14.828C108.301 15.6948 108.986 16.3305 109.835 16.7696C110.683 17.1972 111.613 17.4168 112.612 17.4168C113.611 17.4168 115.157 17.0817 116.086 16.3998C117.016 15.7179 117.609 14.7933 117.853 13.626H119.073C118.794 15.0591 118.085 16.2149 116.946 17.1048C115.808 17.9947 114.355 18.4339 112.612 18.4339C110.869 18.4339 110.114 18.1449 109.079 17.5555C108.045 16.9661 107.232 16.134 106.639 15.036C106.046 13.9381 105.756 12.6668 105.756 11.199C105.756 9.73124 106.046 8.45994 106.628 7.37355C107.209 6.28717 108.022 5.45504 109.056 4.87718C110.09 4.29931 111.276 4.01038 112.612 4.01038C113.948 4.01038 115.134 4.29931 116.133 4.87718C117.132 5.45504 117.888 6.21782 118.41 7.17708C118.933 8.13633 119.189 9.16493 119.189 10.2629C119.189 11.3608 119.166 11.3493 119.143 11.6613L119.119 11.6497ZM117.341 7.54691C116.853 6.69167 116.179 6.04446 115.331 5.6284C114.483 5.21234 113.565 4.99275 112.577 4.99275C111.589 4.99275 110.671 5.20078 109.835 5.6284C108.998 6.05602 108.312 6.69167 107.778 7.54691C107.255 8.41371 106.964 9.45386 106.93 10.7021H117.992C118.039 9.46542 117.818 8.41371 117.33 7.54691H117.341Z" fill="white"/>
<path d="M139.571 4.18374L135.132 18.2027H134.016L129.519 5.77865L124.999 18.2027H123.884L119.445 4.18374H120.665L124.453 16.8852L128.973 4.18374H130.089L134.586 16.839L138.374 4.18374H139.571Z" fill="white"/>
<path d="M141.43 17.3822C140.431 16.6887 139.873 15.7179 139.757 14.4351H140.954C141.035 15.3481 141.465 16.0762 142.209 16.6078C142.964 17.1395 143.987 17.4053 145.288 17.4053C146.59 17.4053 147.217 17.1395 147.845 16.5963C148.472 16.0531 148.797 15.3828 148.797 14.5969C148.797 13.811 148.623 13.5914 148.286 13.2447C147.949 12.8864 147.531 12.6206 147.031 12.4356C146.531 12.2507 145.846 12.0427 144.974 11.8116C143.94 11.5342 143.092 11.2684 142.453 11.0025C141.814 10.7367 141.268 10.3322 140.814 9.80058C140.361 9.26895 140.14 8.5524 140.14 7.66248C140.14 6.77257 140.338 6.40274 140.733 5.83643C141.128 5.28168 141.686 4.83095 142.395 4.50734C143.103 4.18374 143.905 4.02194 144.812 4.02194C146.287 4.02194 147.473 4.39177 148.379 5.11988C149.285 5.84799 149.774 6.86503 149.843 8.15945H148.67C148.623 7.23486 148.251 6.47208 147.577 5.88266C146.903 5.29324 145.962 5.00431 144.777 5.00431C143.592 5.00431 142.941 5.25857 142.278 5.77865C141.616 6.29872 141.291 6.92282 141.291 7.66248C141.291 8.40215 141.477 8.84133 141.849 9.24583C142.22 9.65034 142.674 9.96238 143.22 10.1704C143.766 10.39 144.486 10.6096 145.393 10.8523C146.38 11.1066 147.171 11.3608 147.763 11.6151C148.356 11.8693 148.867 12.2276 149.285 12.7015C149.704 13.1753 149.913 13.811 149.913 14.5969C149.913 15.3828 149.715 15.9722 149.32 16.5616C148.925 17.151 148.367 17.6018 147.659 17.9254C146.95 18.249 146.148 18.4108 145.265 18.4108C143.685 18.4108 142.406 18.064 141.407 17.3822H141.43Z" fill="white"/>
<path d="M154.945 4.71537C155.828 4.17218 156.955 3.90636 158.314 3.90636V5.11988H157.919C156.537 5.11988 155.386 5.51283 154.468 6.29872C153.55 7.08462 153.097 8.35592 153.097 10.1357V18.2143H151.923V4.1953H153.097V7.08462C153.446 6.05602 154.061 5.25857 154.945 4.72693V4.71537Z" fill="white"/>
<path d="M162.114 17.544C161.057 16.9545 160.232 16.1224 159.639 15.0245C159.046 13.9265 158.744 12.6552 158.744 11.1875C158.744 9.71968 159.046 8.47149 159.651 7.37355C160.255 6.27561 161.092 5.44348 162.161 4.86562C163.23 4.28775 164.415 3.99882 165.728 3.99882C167.041 3.99882 168.227 4.28775 169.284 4.86562C170.341 5.44348 171.166 6.27561 171.759 7.36199C172.352 8.44838 172.654 9.71968 172.654 11.1875C172.654 12.6552 172.352 13.9265 171.747 15.0245C171.143 16.1224 170.307 16.9545 169.237 17.544C168.168 18.1334 166.983 18.4223 165.67 18.4223C164.357 18.4223 163.172 18.1334 162.114 17.544ZM168.54 16.7003C169.435 16.2496 170.144 15.5561 170.678 14.62C171.213 13.6954 171.48 12.5512 171.48 11.1875C171.48 9.8237 171.213 8.70264 170.678 7.77806C170.144 6.85347 169.435 6.16004 168.552 5.69774C167.669 5.24701 166.716 5.01586 165.693 5.01586C164.671 5.01586 163.729 5.24701 162.846 5.69774C161.975 6.14848 161.266 6.84192 160.731 7.77806C160.197 8.70264 159.93 9.84681 159.93 11.1875C159.93 12.5281 160.197 13.6954 160.72 14.62C161.243 15.5446 161.952 16.238 162.823 16.7003C163.695 17.151 164.647 17.3822 165.67 17.3822C166.693 17.3822 167.645 17.151 168.54 16.7003Z" fill="white"/>
<path d="M177.302 17.544C176.244 16.9545 175.419 16.1224 174.827 15.0245C174.234 13.9265 173.932 12.6552 173.932 11.1875C173.932 9.71968 174.234 8.47149 174.838 7.37355C175.443 6.27561 176.279 5.44348 177.348 4.86562C178.417 4.28775 179.603 3.99882 180.916 3.99882C182.229 3.99882 183.414 4.28775 184.472 4.86562C185.529 5.44348 186.354 6.27561 186.947 7.36199C187.539 8.44838 187.841 9.71968 187.841 11.1875C187.841 12.6552 187.539 13.9265 186.935 15.0245C186.331 16.1224 185.494 16.9545 184.425 17.544C183.356 18.1334 182.171 18.4223 180.858 18.4223C179.545 18.4223 178.359 18.1334 177.302 17.544ZM183.728 16.7003C184.623 16.2496 185.332 15.5561 185.866 14.62C186.401 13.6954 186.668 12.5512 186.668 11.1875C186.668 9.8237 186.401 8.70264 185.866 7.77806C185.332 6.85347 184.623 6.16004 183.74 5.69774C182.856 5.24701 181.904 5.01586 180.881 5.01586C179.858 5.01586 178.917 5.24701 178.034 5.69774C177.162 6.14848 176.454 6.84192 175.919 7.77806C175.385 8.70264 175.117 9.84681 175.117 11.1875C175.117 12.5281 175.385 13.6954 175.907 14.62C176.43 15.5446 177.139 16.238 178.011 16.7003C178.882 17.151 179.835 17.3822 180.858 17.3822C181.88 17.3822 182.833 17.151 183.728 16.7003Z" fill="white"/>
<path d="M210.466 5.44348C211.489 6.47208 212 7.98609 212 9.99706V18.2143H210.861V10.078C210.861 8.41371 210.455 7.13085 209.653 6.24094C208.851 5.35103 207.747 4.91185 206.341 4.91185C204.935 4.91185 203.715 5.40881 202.832 6.4143C201.948 7.40822 201.507 8.86444 201.507 10.7483V18.2143H200.368V10.078C200.368 8.41371 199.961 7.13085 199.16 6.24094C198.358 5.35103 197.254 4.91185 195.848 4.91185C194.442 4.91185 193.222 5.40881 192.339 6.4143C191.455 7.40822 191.014 8.86444 191.014 10.7483V18.2143H189.84V4.1953H191.014V7.24642C191.409 6.14848 192.06 5.31635 192.943 4.75005C193.838 4.1953 194.86 3.90636 196.022 3.90636C197.184 3.90636 198.404 4.24153 199.334 4.90029C200.264 5.55906 200.891 6.54143 201.24 7.83584C201.565 6.54143 202.204 5.57061 203.157 4.90029C204.11 4.24153 205.225 3.90636 206.504 3.90636C207.782 3.90636 209.432 4.41488 210.455 5.44348H210.466Z" fill="white"/>
</svg>
